<svg version="1.1" id="Layer_1" xmlns="http://www.w3.org/2000/svg" xmlns:xlink="http://www.w3.org/1999/xlink" x="0px" y="0px"
	 width="100%" viewBox="0 0 1058 238" enable-background="new 0 0 1058 238" xml:space="preserve">
<path fill="#FFFFFF" opacity="1.000000" stroke="none" 
	d="
M776.000000,239.000000 
	C727.979126,239.000000 679.958191,239.000000 631.629028,238.681854 
	C638.428894,236.068024 640.967896,232.675903 640.996826,225.390137 
	C641.013977,221.065231 641.000000,216.740204 641.000000,212.415222 
	C641.000000,207.006470 641.000000,201.597733 641.000000,196.325989 
	C638.249512,196.325989 636.328186,196.325989 633.999634,196.325989 
	C633.999634,205.593735 634.057495,214.545410 633.978882,223.495895 
	C633.927856,229.293289 630.924927,231.912582 625.571106,230.949738 
	C621.435974,230.206085 619.954468,227.446381 619.981140,223.463089 
	C620.041931,214.388351 620.000366,205.312943 620.000366,196.303955 
	C616.625854,196.303955 614.034363,196.303955 611.000000,196.303955 
	C611.000000,205.047256 611.125427,213.496170 610.963440,221.939575 
	C610.813110,229.772171 612.674194,236.239914 621.000000,239.000000 
	C464.645782,239.000000 308.291534,239.000000 151.628448,238.682358 
	C156.487198,237.013626 160.000458,233.717911 161.875183,228.832535 
	C162.449356,227.336349 162.773514,224.486038 162.057846,224.016983 
	C160.602158,223.062836 158.078949,222.620361 156.523422,223.256851 
	C155.035339,223.865707 154.083374,226.031616 153.128571,227.650467 
	C150.304886,232.438019 146.799164,233.028702 142.775085,229.276642 
	C137.812393,224.649414 137.410950,209.365051 142.121750,204.402161 
	C145.703720,200.628525 150.542648,201.426193 153.048889,206.280914 
	C153.996231,208.115982 154.707245,210.073059 155.439178,211.772919 
	C158.268921,211.268051 160.588745,210.854172 162.875824,210.446121 
	C160.562943,194.142868 145.064117,191.213547 136.146423,199.076447 
	C130.399765,204.143372 129.799606,211.227859 129.907028,218.561920 
	C130.043259,227.863785 133.087753,235.070831 142.000000,239.000000 
	C95.078300,239.000000 48.156601,239.000000 1.000000,239.000000 
	C1.000000,198.646072 1.000000,158.291702 1.379414,117.631165 
	C2.416645,127.077393 5.925471,135.835266 10.652220,144.296829 
	C19.141642,159.494141 31.712433,169.831161 47.783207,175.971390 
	C59.708065,180.527588 71.969955,182.027390 84.796013,180.121887 
	C97.421967,178.246124 108.993858,174.424896 119.141235,166.477112 
	C122.166969,164.107269 121.523331,161.780960 119.871407,159.452637 
	C114.509033,151.894485 108.990829,144.445892 103.470947,137.000839 
	C99.846306,132.111984 97.529770,131.813187 92.286018,135.206451 
	C79.289185,143.616776 63.144550,141.236526 53.391861,130.689011 
	C39.144497,115.280510 41.010612,94.024109 56.359478,81.251137 
	C62.316219,76.294067 69.273018,73.135109 77.298203,75.048370 
	C82.757462,76.349892 88.317879,77.809288 93.323921,80.244659 
	C97.297462,82.177727 99.508392,82.153374 102.185951,78.458717 
	C107.732941,70.804596 113.755890,63.497204 119.482025,55.970325 
	C122.176994,52.427849 121.483612,49.514942 117.827095,46.961983 
	C100.699661,35.003735 81.673172,31.428295 61.414375,35.073570 
	C31.637560,40.431469 12.347385,57.934956 3.568074,86.917206 
	C2.563603,90.233177 1.849004,93.636940 1.000000,97.000000 
	C1.000000,65.020744 1.000000,33.041496 1.000000,1.000000 
	C193.687561,1.000000 386.375122,1.000000 579.458252,1.294906 
	C579.224792,2.013935 578.595764,2.438058 577.602783,2.922398 
	C575.134399,4.426543 572.423279,5.433424 571.019104,7.382042 
	C557.028076,26.797922 543.211609,46.340179 529.428772,65.905235 
	C517.460388,82.894737 505.599060,99.959663 493.325500,116.970932 
	C479.575378,111.281151 466.190186,105.611702 452.881348,99.482803 
	C452.957672,91.431496 452.957672,83.839638 452.957672,76.000000 
	C463.413147,76.000000 473.218201,75.857529 483.015991,76.062843 
	C487.601532,76.158936 489.163452,74.290543 489.061523,69.848633 
	C488.855316,60.861362 488.768494,51.857567 489.097137,42.877594 
	C489.262756,38.351757 488.069305,36.860428 483.295380,36.889706 
	C449.493408,37.097023 415.689514,36.998177 381.886261,37.001678 
	C376.001282,37.002289 375.039764,37.930943 375.009949,43.868702 
	C374.969818,51.861389 375.054108,59.854904 374.984436,67.847183 
	C374.917847,75.482246 376.564026,76.313263 383.102936,76.082550 
	C392.338806,75.756699 401.594696,76.000015 410.999939,76.000015 
	C410.999939,77.851463 410.999939,79.005783 410.999939,80.160110 
	C410.999939,110.799522 411.044250,141.439072 410.948883,172.078186 
	C410.935669,176.329208 412.061951,178.256790 416.812775,178.104431 
	C427.292664,177.768356 437.793671,177.858963 448.279907,178.074387 
	C452.088867,178.152618 453.103241,176.771896 453.068634,173.138123 
	C452.924316,157.986923 453.037445,142.833252 453.398102,127.756371 
	C455.049103,129.108856 456.378967,130.364914 457.664062,131.665237 
	C472.617249,146.795700 487.520477,161.976135 502.580872,176.999039 
	C504.035889,178.450455 506.753143,180.057327 508.361053,179.628662 
	C511.389679,178.821228 514.036560,176.581879 517.023499,174.886948 
	C517.204895,174.836090 517.461243,174.559937 517.535828,174.605621 
	C517.610413,174.651291 517.583679,174.397263 517.725098,174.049927 
	C517.858276,173.452698 517.850098,173.202820 518.044556,172.656982 
	C522.003845,163.006287 525.688843,153.621964 529.530945,144.302444 
	C540.175232,118.483604 550.885071,92.691788 561.699097,67.349518 
	C561.886108,68.971718 561.992493,70.133667 561.992798,71.295639 
	C562.001648,105.109428 562.070374,138.923553 561.910706,172.736588 
	C561.890747,176.966003 563.176636,178.193741 567.321167,178.086121 
	C577.475037,177.822464 587.652527,177.706299 597.796265,178.121582 
	C603.014099,178.335190 604.252686,176.577789 604.114380,171.614777 
	C603.768066,159.191544 604.000000,146.752197 604.000000,133.999908 
	C616.171326,133.999908 627.799805,134.034256 639.428040,133.984909 
	C644.942261,133.961502 645.991455,132.830292 645.997864,127.312866 
	C646.006531,119.817207 646.006104,112.321518 645.998169,104.825859 
	C645.991394,98.446640 645.554932,98.006340 639.190735,98.002167 
	C627.584045,97.994553 615.977356,98.000000 604.274048,98.000000 
	C604.274048,90.108734 604.274048,82.714676 604.274048,74.999863 
	C621.171875,74.999863 637.797913,74.939217 654.422974,75.043602 
	C658.449707,75.068893 660.126648,73.480881 660.041992,69.439323 
	C659.891968,62.279942 660.000000,55.115154 660.000000,47.952625 
	C660.000000,37.000000 659.999939,37.024895 648.877319,36.994942 
	C623.900574,36.927677 598.923889,36.833179 574.076050,36.429111 
	C578.144531,26.824873 582.096252,17.546383 586.016235,8.254507 
	C587.124023,5.628435 587.852966,3.053266 584.017578,1.969583 
	C584.000000,1.998388 584.062561,1.973455 584.035217,1.730842 
	C584.007874,1.488229 584.000000,1.000000 584.000000,1.000000 
	C742.218567,1.000000 900.437073,1.000000 1059.000000,1.000000 
	C1059.000000,43.686943 1059.000000,86.374817 1058.629517,129.381287 
	C1056.940430,117.320496 1050.230347,108.451683 1039.742554,102.087418 
	C1054.995605,90.240158 1056.339722,70.381966 1047.175171,55.895699 
	C1038.940918,42.879902 1025.583862,37.681217 1010.918945,37.178810 
	C990.297974,36.472347 969.633667,37.108387 948.990356,36.914509 
	C944.533020,36.872646 943.119873,38.960815 943.020325,42.766453 
	C942.928955,46.260433 943.000061,49.758663 943.000061,53.255024 
	C943.000000,92.380951 943.010620,131.506882 942.989746,170.632812 
	C942.986206,177.265411 944.910767,178.217728 950.387329,178.101883 
	C964.699341,177.799133 979.023438,178.121872 993.339966,177.957504 
	C1003.084839,177.845627 1012.937500,178.137695 1022.538879,176.795914 
	C1034.572632,175.114182 1045.501343,170.068054 1052.081665,159.161392 
	C1055.227417,153.947510 1056.744995,147.751282 1059.000000,142.000000 
	C1059.000000,174.295059 1059.000000,206.590134 1059.000000,239.000000 
	C968.312500,239.000000 877.624878,239.000000 786.641602,238.675812 
	C793.352112,236.985931 797.887817,232.287720 797.999756,226.280258 
	C798.139954,218.756332 794.931763,214.965729 786.951538,212.970505 
	C783.787048,212.179306 780.570557,211.380112 777.618896,210.049652 
	C776.262207,209.438126 774.833191,207.610489 774.675842,206.196487 
	C774.570129,205.246353 776.455017,203.687439 777.765076,203.035965 
	C782.708252,200.577805 786.122437,203.202927 789.518372,207.650864 
	C791.669495,206.246521 793.802734,204.853836 795.935974,203.461182 
	C793.738831,201.228897 791.893433,198.312851 789.248047,196.952118 
	C786.473877,195.525162 782.923462,195.056320 779.727966,195.109818 
	C772.210571,195.235641 766.475281,199.824722 766.005615,205.431763 
	C765.254639,214.396881 767.810242,217.816345 776.935913,220.086914 
	C779.476624,220.719070 782.181213,221.031830 784.487976,222.154251 
	C786.238708,223.006058 787.835205,224.713654 788.778809,226.435760 
	C789.190857,227.187653 788.133972,229.316391 787.166626,230.148438 
	C783.829712,233.018692 776.757080,232.893158 774.036682,229.308884 
	C770.846191,225.105148 767.844177,225.499176 763.381409,228.324020 
	C764.602783,230.411423 765.354858,233.011795 767.083984,234.344696 
	C769.698547,236.360123 772.993958,237.492416 776.000000,239.000000 
M310.418640,141.923553 
	C315.632050,152.738586 320.773987,163.589325 326.140564,174.327805 
	C326.892853,175.833069 328.726440,177.812378 330.093231,177.838974 
	C343.587860,178.101501 357.089691,178.018051 370.589325,177.981415 
	C373.378021,177.973846 374.267120,176.419235 373.389954,173.863205 
	C372.814178,172.185394 372.221649,170.492035 371.418427,168.916901 
	C364.408997,155.171707 357.361633,141.445786 350.296051,127.729324 
	C348.988556,125.191093 348.165649,123.403671 351.731079,121.454048 
	C354.631927,119.867798 356.956299,116.832794 358.931763,114.016235 
	C368.007629,101.076118 369.741943,86.674057 365.916046,71.697250 
	C360.684906,51.219578 343.518585,37.622303 322.737610,37.113407 
	C301.750610,36.599464 280.739899,37.122070 259.742615,36.900764 
	C255.366547,36.854637 253.952652,38.338272 253.959091,42.498978 
	C254.026031,85.831375 254.025177,129.163940 253.959732,172.496353 
	C253.953568,176.574951 255.648788,178.096817 259.639099,178.044296 
	C269.803802,177.910507 279.978424,177.779556 290.134796,178.099899 
	C294.689056,178.243546 296.242798,177.037933 296.112335,172.271576 
	C295.776306,159.993744 295.999908,147.700592 295.999908,135.209106 
	C300.203552,135.209106 303.962982,135.209106 307.894409,135.209106 
	C308.628204,137.257751 309.338226,139.240021 310.418640,141.923553 
M877.056274,162.380737 
	C878.926208,166.334564 880.898804,170.244049 882.630859,174.257370 
	C883.836182,177.050323 885.646423,178.107101 888.740234,178.063858 
	C900.232483,177.903183 911.728394,178.000565 923.222900,177.999619 
	C930.846069,177.998993 931.708008,176.597244 928.274963,169.719055 
	C920.694641,154.531754 913.102783,139.350174 905.402466,123.939590 
	C907.433289,122.279144 909.776794,120.708290 911.702393,118.730484 
	C921.435547,108.733200 924.283325,96.568230 924.156189,82.850891 
	C923.921448,57.538654 903.609680,37.175434 878.094604,37.024414 
	C857.771606,36.904121 837.445862,37.134308 817.124878,36.899681 
	C812.427917,36.845451 810.864685,37.993973 810.887268,42.959213 
	C811.082947,85.937897 810.999939,128.917847 811.000061,171.897430 
	C811.000061,172.730362 810.672791,173.797928 811.067017,174.349670 
	C812.026672,175.693008 813.298523,177.813431 814.484558,177.840012 
	C826.139832,178.101013 837.803772,177.933731 849.463989,178.036774 
	C852.957825,178.067642 853.030945,176.000320 853.020325,173.451248 
	C852.973145,162.123489 852.991089,150.795425 853.010925,139.467499 
	C853.013428,138.032883 853.165649,136.598511 853.257874,134.999939 
	C854.802490,134.999939 855.981567,135.155792 857.105652,134.973190 
	C862.178528,134.149094 865.143494,136.012497 867.128174,140.980881 
	C869.948730,148.041733 873.630371,154.758591 877.056274,162.380737 
M704.810120,176.954071 
	C718.289734,181.600815 732.055847,182.083389 746.057373,180.025528 
	C773.948669,175.926239 792.819092,155.665543 793.779419,127.903290 
	C794.769775,99.272156 793.981201,70.580093 794.021606,41.914757 
	C794.026855,38.172070 792.503662,36.830605 788.672546,36.920902 
	C778.678528,37.156445 768.664795,37.278419 758.679626,36.899376 
	C752.341919,36.658794 750.972900,38.284801 750.983276,44.589554 
	C751.024109,69.421722 750.906372,94.254608 751.069214,119.085762 
	C751.107483,124.920235 749.524658,129.837265 746.160706,134.588715 
	C738.609436,145.254654 722.426697,143.567749 716.658020,133.338867 
	C713.227112,127.255180 712.149597,120.740219 712.087891,114.107895 
	C711.864685,90.111038 711.924194,66.110367 712.076538,42.112396 
	C712.101135,38.236012 711.093384,36.810814 707.022522,36.913601 
	C696.696228,37.174335 686.348022,37.281204 676.030701,36.880486 
	C670.944336,36.682926 669.924866,38.778671 669.942627,43.214367 
	C670.055542,71.379333 669.784180,99.547531 670.119019,127.708969 
	C670.233582,137.346619 673.172180,146.468826 678.280518,154.864670 
	C684.484070,165.060440 693.408508,171.832062 704.810120,176.954071 
M239.966263,143.092331 
	C237.961121,142.061600 235.967819,140.163895 233.948959,140.136276 
	C216.619125,139.899155 199.284637,140.000137 181.951553,140.000122 
	C180.362488,140.000122 178.773422,140.000122 177.369781,140.000122 
	C177.369781,134.582764 177.369781,129.847717 177.369781,124.999855 
	C190.733414,124.999855 203.727463,125.002075 216.721512,124.998978 
	C223.998337,124.997246 223.999023,124.993279 223.999680,118.037971 
	C224.000427,110.204750 223.897034,102.369629 224.042007,94.539093 
	C224.117157,90.479332 222.409088,88.916260 218.395706,88.955902 
	C206.063751,89.077713 193.729828,89.008575 181.396698,88.988716 
	C179.971268,88.986420 178.546112,88.827370 177.211365,88.746475 
	C177.211365,84.002403 177.211365,79.720833 177.211365,74.999855 
	C179.035812,74.999855 180.656311,74.999855 182.276794,74.999847 
	C198.943222,74.999817 215.609695,75.019791 232.276062,74.987961 
	C237.488403,74.978004 238.962189,73.493088 238.988495,68.291031 
	C239.030624,59.958023 238.978073,51.624573 239.008499,43.291466 
	C239.024506,38.905651 237.375168,36.882851 232.525192,36.910404 
	C201.526627,37.086544 170.525955,37.096176 139.527695,36.896099 
	C134.907608,36.866276 133.960602,38.770317 133.965637,42.713562 
	C134.020813,85.879547 134.033203,129.045685 133.948944,172.211578 
	C133.940552,176.510422 135.610992,178.064224 139.853973,178.051331 
	C171.186569,177.956116 202.519806,177.945847 233.852264,178.060944 
	C238.298019,178.077255 240.166016,176.588470 240.062500,172.003967 
	C239.851837,162.675491 239.997498,153.338989 239.966263,143.092331 
M729.938599,213.207504 
	C735.113831,206.046173 729.645996,196.820038 723.132446,196.280807 
	C715.923523,195.683975 708.627075,196.144409 701.427124,196.144409 
	C701.427124,210.390884 701.427124,224.092499 701.427124,237.999741 
	C708.509277,237.999741 715.165710,238.028931 721.821716,237.991760 
	C728.838745,237.952591 733.690918,233.307510 732.805176,226.355667 
	C732.317627,222.528503 729.858826,218.952469 728.157410,214.954468 
	C728.027527,215.055328 728.798645,214.456528 729.938599,213.207504 
M905.496704,196.000122 
	C902.083069,196.000122 898.669495,196.000122 895.289246,196.000122 
	C895.289246,210.368622 895.289246,223.940353 895.289246,237.999863 
	C900.350952,237.999863 905.135132,238.001022 909.919312,237.999619 
	C920.498474,237.996521 927.086670,233.777649 929.287964,224.045471 
	C931.480530,214.351791 930.470032,204.833115 921.279602,198.524658 
	C916.534424,195.267563 911.495728,196.284271 905.496704,196.000122 
M434.302185,237.999863 
	C443.486664,237.967133 449.237122,234.181259 452.600922,225.829453 
	C456.548676,216.027725 453.128906,199.711365 441.354095,197.019287 
	C434.296143,195.405640 426.715881,196.076736 419.261200,195.715652 
	C419.261200,210.298508 419.261200,223.876511 419.261200,237.999878 
	C424.119781,237.999878 428.735168,237.999878 434.302185,237.999863 
M520.915710,213.066330 
	C521.063904,211.752426 521.257507,210.441803 521.352539,209.124069 
	C521.795105,202.985504 518.570740,197.199188 512.847778,196.632812 
	C504.714813,195.827896 496.442719,196.428345 488.310120,196.428345 
	C488.310120,210.413864 488.310120,223.998352 488.310120,237.592865 
	C491.002167,237.592865 493.372986,237.592865 496.174866,237.592865 
	C496.174866,231.931900 496.174866,226.671127 496.174866,221.486313 
	C505.674225,220.226730 505.999237,220.416031 508.744598,228.443756 
	C509.169128,229.685226 509.545044,230.948914 510.057648,232.153732 
	C512.870911,238.765640 512.883118,238.760437 521.273499,237.406387 
	C519.963074,234.155991 518.690247,231.016418 517.431091,227.871368 
	C515.761169,223.700531 513.164490,219.432404 519.094116,216.274796 
	C519.838013,215.878662 520.135498,214.644226 520.915710,213.066330 
M225.505936,196.000122 
	C221.759644,196.000122 218.013351,196.000122 214.276489,196.000122 
	C214.276489,210.359650 214.276489,223.932327 214.276489,237.633194 
	C216.929565,237.633194 219.298248,237.633194 222.096985,237.633194 
	C222.096985,232.019760 222.096985,226.759903 222.096985,221.260071 
	C225.458160,221.260071 228.388794,221.260071 231.388290,221.260071 
	C232.864182,224.713654 234.426758,228.124939 235.791107,231.613739 
	C238.620483,238.848724 238.991791,239.082779 246.915878,237.240280 
	C245.788666,234.504318 244.616333,231.820816 243.575165,229.087341 
	C242.476364,226.202591 241.502670,223.270187 240.214401,219.622604 
	C240.639847,219.362030 241.396011,218.970703 242.073822,218.472748 
	C250.022232,212.633408 248.906281,200.470856 239.682770,197.100540 
	C235.685516,195.639923 230.912567,196.302139 225.505936,196.000122 
M677.487366,233.977005 
	C679.193481,239.844498 683.737122,237.765213 688.251404,237.788483 
	C686.502563,233.486710 684.873596,229.588974 683.333374,225.656494 
	C682.120361,222.559341 681.029175,219.958313 684.974854,217.254517 
	C689.846680,213.915970 688.969055,207.810242 687.362427,203.529526 
	C686.169495,200.350800 681.718994,196.857452 678.306091,196.364227 
	C670.851379,195.286911 663.133423,196.031036 655.339844,196.031036 
	C655.339844,210.241959 655.339844,223.943970 655.339844,237.745468 
	C657.940613,237.745468 660.199524,237.745468 663.067810,237.745468 
	C663.067810,232.124771 663.067810,226.733353 663.067810,220.854752 
	C667.054810,222.039688 671.451721,218.567993 673.724670,223.522263 
	C675.152771,226.635178 676.007019,230.011353 677.487366,233.977005 
M818.000000,230.447693 
	C818.000000,227.035538 818.000000,223.623383 818.000000,220.333191 
	C823.431641,220.333191 828.019653,220.333191 833.218994,220.333191 
	C833.218994,226.369888 833.218994,232.087616 833.218994,237.663910 
	C836.099854,237.663910 838.355408,237.663910 840.583313,237.663910 
	C840.583313,223.622314 840.583313,209.919449 840.583313,196.333466 
	C837.906006,196.333466 835.649719,196.333466 832.777344,196.333466 
	C832.777344,202.038788 832.777344,207.429306 832.777344,212.661560 
	C827.556946,212.661560 822.968750,212.661560 817.768372,212.661560 
	C817.768372,206.953217 817.768372,201.568619 817.768372,196.341751 
	C814.886658,196.341751 812.632629,196.341751 810.424133,196.341751 
	C810.424133,210.386353 810.424133,224.086716 810.424133,237.660782 
	C813.107361,237.660782 815.361938,237.660782 818.000000,237.660782 
	C818.000000,235.357101 818.000000,233.387436 818.000000,230.447693 
M561.954224,236.332642 
	C561.954224,234.718994 561.954224,233.105362 561.954224,230.878632 
	C555.408203,230.878632 549.346558,230.878632 543.287903,230.878632 
	C543.287903,226.996307 543.287903,223.737579 543.287903,219.876358 
	C548.288147,219.876358 553.015198,219.876358 557.711914,219.876358 
	C557.711914,217.332123 557.711914,215.403290 557.711914,212.861053 
	C552.718445,212.861053 547.994141,212.861053 543.297485,212.861053 
	C543.297485,209.311157 543.297485,206.384232 543.297485,202.857697 
	C549.642944,202.857697 555.707703,202.857697 561.700928,202.857697 
	C561.700928,200.313553 561.700928,198.384338 561.700928,196.394104 
	C552.357727,196.394104 543.314941,196.394104 534.310547,196.394104 
	C534.310547,210.378647 534.310547,223.967102 534.310547,237.227112 
	C543.674438,237.227112 552.721924,237.227112 561.954224,236.332642 
M194.421509,196.000122 
	C187.675293,196.000122 180.929077,196.000122 174.339905,196.000122 
	C174.339905,210.444534 174.339905,224.031006 174.339905,237.751312 
	C183.603683,237.751312 192.526169,237.751312 201.661469,237.751312 
	C201.661469,235.463379 201.661469,233.426819 201.661469,230.769669 
	C194.953186,230.769669 188.564545,230.769669 182.342438,230.769669 
	C182.342438,226.883331 182.342438,223.624222 182.342438,219.939178 
	C187.606384,219.939178 192.541458,219.939178 197.657059,219.939178 
	C197.657059,217.450439 197.657059,215.414368 197.657059,212.937119 
	C192.398239,212.937119 187.464432,212.937119 182.347641,212.937119 
	C182.347641,209.445847 182.347641,206.407669 182.347641,202.930374 
	C188.949829,202.930374 195.216934,202.930374 201.651764,202.930374 
	C201.651764,200.442383 201.651764,198.408325 201.651764,196.000137 
	C199.338806,196.000137 197.367188,196.000137 194.421509,196.000122 
M398.389221,219.999832 
	C400.155609,219.999832 401.921997,219.999832 403.733368,219.999832 
	C403.733368,217.369644 403.733368,215.441452 403.733368,212.900055 
	C398.429474,212.900055 393.370911,212.900055 388.275269,212.900055 
	C388.275269,209.354233 388.275269,206.428757 388.275269,202.900085 
	C394.592804,202.900085 400.658447,202.900085 406.726379,202.900085 
	C406.726379,200.357712 406.726379,198.429367 406.726379,196.368469 
	C397.743561,196.368469 389.035065,196.368469 380.281738,196.368469 
	C380.281738,210.324356 380.281738,223.910309 380.281738,237.640869 
	C389.613922,237.640869 398.661194,237.640869 407.722473,237.640869 
	C407.722473,235.345459 407.722473,233.418747 407.722473,230.880035 
	C401.074799,230.880035 394.679901,230.880035 388.285645,230.880035 
	C388.285645,227.000015 388.285645,223.741928 388.285645,219.999863 
	C391.514313,219.999863 394.474670,219.999863 398.389221,219.999832 
M882.997559,199.499054 
	C882.247009,198.339447 881.526428,196.195953 880.741211,196.171982 
	C872.641479,195.924835 864.531250,196.020218 856.408386,196.020218 
	C856.408386,210.340912 856.408386,224.047592 856.408386,237.685242 
	C865.749390,237.685242 874.678650,237.685242 883.584595,237.685242 
	C883.584595,235.325592 883.584595,233.288071 883.584595,230.805923 
	C876.916077,230.805923 870.656677,230.805923 864.419128,230.805923 
	C864.419128,226.969528 864.419128,223.597214 864.419128,219.793701 
	C869.768738,219.793701 874.702759,219.793701 879.574341,219.793701 
	C879.574341,217.306549 879.574341,215.268723 879.574341,212.787811 
	C874.226746,212.787811 869.298645,212.787811 864.430176,212.787811 
	C864.430176,209.284546 864.430176,206.245255 864.430176,202.998856 
	C869.684448,202.998856 874.521362,203.174454 879.329468,202.880417 
	C880.595886,202.802948 881.773560,201.273773 882.997559,199.499054 
M341.067566,220.826019 
	C341.430267,218.712845 341.792969,216.599655 342.279663,213.764099 
	C336.950684,213.764099 332.567535,213.764099 328.346893,213.764099 
	C328.346893,209.875214 328.346893,206.616333 328.346893,202.929886 
	C334.282623,202.929886 339.885284,202.929886 345.649902,202.929886 
	C345.649902,200.443314 345.649902,198.406265 345.649902,196.265228 
	C336.712799,196.265228 328.124664,196.265228 319.351929,196.265228 
	C319.351929,210.242203 319.351929,223.951950 319.351929,237.731308 
	C322.299835,237.731308 324.892303,237.731308 328.102264,237.731308 
	C328.102264,232.090591 328.102264,226.703766 328.102264,220.967972 
	C332.534302,220.967972 336.345123,220.967972 341.067566,220.826019 
M588.542908,220.999878 
	C591.293091,220.999878 594.043274,220.999878 596.675598,220.999878 
	C596.675598,218.258881 596.675598,216.333801 596.675598,213.795563 
	C591.645386,213.795563 586.924744,213.795563 582.330688,213.795563 
	C582.330688,209.910187 582.330688,206.649734 582.330688,202.788910 
	C588.702637,202.788910 594.758301,202.788910 600.668823,202.788910 
	C600.668823,200.235703 600.668823,198.314148 600.668823,196.422150 
	C591.627441,196.422150 582.919373,196.422150 574.327881,196.422150 
	C574.327881,210.438782 574.327881,224.031219 574.327881,237.570999 
	C577.040039,237.570999 579.412231,237.570999 582.224548,237.570999 
	C582.224548,231.888748 582.224548,226.630142 582.224548,220.999878 
	C584.313477,220.999878 585.950195,220.999878 588.542908,220.999878 
M266.000000,218.503098 
	C266.000000,224.927673 266.000000,231.352264 266.000000,237.687271 
	C269.389191,237.687271 271.981140,237.687271 275.178162,237.687271 
	C275.178162,226.003113 275.178162,214.616211 275.178162,202.820114 
	C279.062927,202.820114 282.328766,202.820114 285.594055,202.820114 
	C285.594055,200.328094 285.594055,198.295410 285.594055,196.304626 
	C275.264008,196.304626 265.340271,196.304626 255.400467,196.304626 
	C255.400467,198.654907 255.400467,200.693863 255.400467,203.174210 
	C259.055176,203.174210 262.314331,203.174210 266.000000,203.174210 
	C266.000000,208.244080 266.000000,212.874527 266.000000,218.503098 
M745.000000,230.424911 
	C745.000000,232.852570 745.000000,235.280212 745.000000,237.713257 
	C748.334961,237.713257 750.928284,237.713257 753.627625,237.713257 
	C753.627625,223.713623 753.627625,210.003036 753.627625,196.290527 
	C750.657715,196.290527 748.064087,196.290527 745.000000,196.290527 
	C745.000000,207.530945 745.000000,218.488358 745.000000,230.424911 
M305.000000,222.496460 
	C305.000000,213.741028 305.000000,204.985596 305.000000,196.311630 
	C301.616760,196.311630 299.022278,196.311630 296.392609,196.311630 
	C296.392609,210.335251 296.392609,224.044403 296.392609,237.688141 
	C299.383667,237.688141 301.978149,237.688141 305.000000,237.688141 
	C305.000000,232.756409 305.000000,228.125610 305.000000,222.496460 
M365.000000,231.398468 
	C365.000000,219.776260 365.000000,208.154053 365.000000,196.351761 
	C362.106476,196.351761 359.734863,196.351761 357.263794,196.351761 
	C357.263794,210.293961 357.263794,223.884705 357.263794,237.641571 
	C359.905945,237.641571 362.277252,237.641571 364.999969,237.641571 
	C364.999969,235.650864 364.999969,234.007233 365.000000,231.398468 
z"/>
<path fill="#454544" opacity="1.000000" stroke="none" 
	d="
M1059.000000,141.539352 
	C1056.744995,147.751282 1055.227417,153.947510 1052.081665,159.161392 
	C1045.501343,170.068054 1034.572632,175.114182 1022.538879,176.795914 
	C1012.937500,178.137695 1003.084839,177.845627 993.339966,177.957504 
	C979.023438,178.121872 964.699341,177.799133 950.387329,178.101883 
	C944.910767,178.217728 942.986206,177.265411 942.989746,170.632812 
	C943.010620,131.506882 943.000000,92.380951 943.000061,53.255024 
	C943.000061,49.758663 942.928955,46.260433 943.020325,42.766453 
	C943.119873,38.960815 944.533020,36.872646 948.990356,36.914509 
	C969.633667,37.108387 990.297974,36.472347 1010.918945,37.178810 
	C1025.583862,37.681217 1038.940918,42.879902 1047.175171,55.895699 
	C1056.339722,70.381966 1054.995605,90.240158 1039.742554,102.087418 
	C1050.230347,108.451683 1056.940430,117.320496 1058.629517,129.849945 
	C1059.000000,133.692902 1059.000000,137.385818 1059.000000,141.539352 
M996.495117,143.000000 
	C999.481689,142.999634 1002.474243,143.119614 1005.453613,142.972672 
	C1010.878662,142.705093 1015.298706,138.557800 1015.992798,133.275894 
	C1016.668030,128.137497 1013.153259,121.953552 1008.119873,121.219696 
	C1000.915344,120.169289 993.569885,120.085251 986.310791,119.590347 
	C986.310791,128.008789 986.310791,135.383392 986.310791,143.000000 
	C989.582581,143.000000 992.549133,143.000000 996.495117,143.000000 
M1000.449768,89.112366 
	C1006.120300,88.429909 1010.013550,84.926605 1009.998962,80.519554 
	C1009.987671,77.101181 1005.773438,73.322151 1001.078552,73.065102 
	C996.176208,72.796707 991.247681,73.005180 986.259644,73.005180 
	C986.259644,78.904129 986.259644,84.279785 986.259644,89.696472 
	C990.943176,89.696472 995.368164,89.696472 1000.449768,89.112366 
z"/>
<path fill="#454544" opacity="1.000000" stroke="none" 
	d="
M1.000000,97.468399 
	C1.849004,93.636940 2.563603,90.233177 3.568074,86.917206 
	C12.347385,57.934956 31.637560,40.431469 61.414375,35.073570 
	C81.673172,31.428295 100.699661,35.003735 117.827095,46.961983 
	C121.483612,49.514942 122.176994,52.427849 119.482025,55.970325 
	C113.755890,63.497204 107.732941,70.804596 102.185951,78.458717 
	C99.508392,82.153374 97.297462,82.177727 93.323921,80.244659 
	C88.317879,77.809288 82.757462,76.349892 77.298203,75.048370 
	C69.273018,73.135109 62.316219,76.294067 56.359478,81.251137 
	C41.010612,94.024109 39.144497,115.280510 53.391861,130.689011 
	C63.144550,141.236526 79.289185,143.616776 92.286018,135.206451 
	C97.529770,131.813187 99.846306,132.111984 103.470947,137.000839 
	C108.990829,144.445892 114.509033,151.894485 119.871407,159.452637 
	C121.523331,161.780960 122.166969,164.107269 119.141235,166.477112 
	C108.993858,174.424896 97.421967,178.246124 84.796013,180.121887 
	C71.969955,182.027390 59.708065,180.527588 47.783207,175.971390 
	C31.712433,169.831161 19.141642,159.494141 10.652220,144.296829 
	C5.925471,135.835266 2.416645,127.077393 1.379414,117.162506 
	C1.000000,110.645599 1.000000,104.291206 1.000000,97.468399 
z"/>
<path fill="#9A9691" opacity="1.000000" stroke="none" 
	d="
M776.454102,239.000000 
	C772.993958,237.492416 769.698547,236.360123 767.083984,234.344696 
	C765.354858,233.011795 764.602783,230.411423 763.381409,228.324020 
	C767.844177,225.499176 770.846191,225.105148 774.036682,229.308884 
	C776.757080,232.893158 783.829712,233.018692 787.166626,230.148438 
	C788.133972,229.316391 789.190857,227.187653 788.778809,226.435760 
	C787.835205,224.713654 786.238708,223.006058 784.487976,222.154251 
	C782.181213,221.031830 779.476624,220.719070 776.935913,220.086914 
	C767.810242,217.816345 765.254639,214.396881 766.005615,205.431763 
	C766.475281,199.824722 772.210571,195.235641 779.727966,195.109818 
	C782.923462,195.056320 786.473877,195.525162 789.248047,196.952118 
	C791.893433,198.312851 793.738831,201.228897 795.935974,203.461182 
	C793.802734,204.853836 791.669495,206.246521 789.518372,207.650864 
	C786.122437,203.202927 782.708252,200.577805 777.765076,203.035965 
	C776.455017,203.687439 774.570129,205.246353 774.675842,206.196487 
	C774.833191,207.610489 776.262207,209.438126 777.618896,210.049652 
	C780.570557,211.380112 783.787048,212.179306 786.951538,212.970505 
	C794.931763,214.965729 798.139954,218.756332 797.999756,226.280258 
	C797.887817,232.287720 793.352112,236.985931 786.172913,238.675812 
	C782.969421,239.000000 779.938782,239.000000 776.454102,239.000000 
z"/>
<path fill="#9A9691" opacity="1.000000" stroke="none" 
	d="
M621.454102,239.000000 
	C612.674194,236.239914 610.813110,229.772171 610.963440,221.939575 
	C611.125427,213.496170 611.000000,205.047256 611.000000,196.303955 
	C614.034363,196.303955 616.625854,196.303955 620.000366,196.303955 
	C620.000366,205.312943 620.041931,214.388351 619.981140,223.463089 
	C619.954468,227.446381 621.435974,230.206085 625.571106,230.949738 
	C630.924927,231.912582 633.927856,229.293289 633.978882,223.495895 
	C634.057495,214.545410 633.999634,205.593735 633.999634,196.325989 
	C636.328186,196.325989 638.249512,196.325989 641.000000,196.325989 
	C641.000000,201.597733 641.000000,207.006470 641.000000,212.415222 
	C641.000000,216.740204 641.013977,221.065231 640.996826,225.390137 
	C640.967896,232.675903 638.428894,236.068024 631.160400,238.681854 
	C627.969421,239.000000 624.938782,239.000000 621.454102,239.000000 
z"/>
<path fill="#9A9691" opacity="1.000000" stroke="none" 
	d="
M142.449982,239.000000 
	C133.087753,235.070831 130.043259,227.863785 129.907028,218.561920 
	C129.799606,211.227859 130.399765,204.143372 136.146423,199.076447 
	C145.064117,191.213547 160.562943,194.142868 162.875824,210.446121 
	C160.588745,210.854172 158.268921,211.268051 155.439178,211.772919 
	C154.707245,210.073059 153.996231,208.115982 153.048889,206.280914 
	C150.542648,201.426193 145.703720,200.628525 142.121750,204.402161 
	C137.410950,209.365051 137.812393,224.649414 142.775085,229.276642 
	C146.799164,233.028702 150.304886,232.438019 153.128571,227.650467 
	C154.083374,226.031616 155.035339,223.865707 156.523422,223.256851 
	C158.078949,222.620361 160.602158,223.062836 162.057846,224.016983 
	C162.773514,224.486038 162.449356,227.336349 161.875183,228.832535 
	C160.000458,233.717911 156.487198,237.013626 151.159790,238.682358 
	C148.299988,239.000000 145.599976,239.000000 142.449982,239.000000 
z"/>
<path fill="#7CEB2B" opacity="1.000000" stroke="none" 
	d="
M581.000000,1.000002 
	C581.444336,1.000000 581.888672,1.000000 582.781372,1.222864 
	C583.507324,1.621637 583.784973,1.797545 584.062561,1.973454 
	C584.062561,1.973455 584.000000,1.998388 584.001587,2.343528 
	C583.146545,4.444122 582.511902,6.357164 581.396362,7.928922 
	C575.180725,16.686653 568.738098,25.284300 562.577271,34.079754 
	C545.299438,58.746410 528.120972,83.482704 510.904480,108.192299 
	C508.444611,111.722733 506.086365,115.329674 503.491791,118.757919 
	C502.298126,120.335060 500.710388,122.748688 499.294434,118.866409 
	C500.726044,116.461891 501.855957,114.224884 502.992920,111.993790 
	C503.000000,111.999695 502.984406,111.986519 503.331543,111.944313 
	C504.122528,110.938843 504.566315,109.975578 505.005066,109.006004 
	C505.000000,108.999695 505.014496,109.009613 505.368652,108.971977 
	C506.813354,106.954811 507.903900,104.975281 508.997253,102.997879 
	C509.000000,103.000000 508.994324,102.994659 509.340149,102.947792 
	C510.125916,101.936424 510.565826,100.971924 511.002869,100.003716 
	C511.000000,100.000000 511.008636,100.005455 511.359192,99.971046 
	C513.135315,97.620377 514.560913,95.304115 515.993286,92.993927 
	C516.000000,93.000000 515.984436,92.987045 516.325928,92.947090 
	C517.135559,91.975960 517.603638,91.044785 518.191528,89.847504 
	C518.858826,89.045143 519.406372,88.508881 520.304871,87.935883 
	C521.103882,86.932869 521.551941,85.966591 522.000000,85.000153 
	C522.000000,85.000000 522.000000,84.999390 522.345276,84.952850 
	C523.131836,83.943062 523.573059,82.979813 524.007202,82.007973 
	C524.000000,81.999390 524.019775,82.013214 524.363037,81.959160 
	C525.137146,80.936569 525.567932,79.968025 525.999390,78.999741 
	C526.000000,79.000000 525.999695,78.998528 526.349487,78.967140 
	C528.790710,75.615898 530.882080,72.296043 532.985474,68.987663 
	C532.997559,68.999146 532.969482,68.974663 533.318909,68.936462 
	C534.111389,67.931709 534.554504,66.965164 534.998779,65.999313 
	C535.000000,66.000000 534.997925,65.998047 535.348877,65.966522 
	C537.154663,63.655647 538.609497,61.376289 540.155518,58.867561 
	C540.410278,58.337566 540.648254,58.117214 541.311157,57.937065 
	C542.103455,56.927189 542.545166,55.957382 542.993469,54.993790 
	C543.000000,55.000000 542.984375,54.987579 543.331665,54.944977 
	C544.122314,53.938351 544.565674,52.974323 545.004517,52.005074 
	C545.000000,51.999847 545.012390,52.008633 545.362732,51.973831 
	C547.137817,49.622021 548.562561,47.305012 549.993652,44.994003 
	C550.000000,45.000000 549.984802,44.987972 550.333252,44.944954 
	C551.116150,43.929840 551.550537,42.957741 551.992493,41.992897 
	C552.000000,42.000153 551.981995,41.985794 552.329590,41.943996 
	C553.121338,40.938328 553.565491,39.974457 554.004883,39.005219 
	C554.000000,38.999847 554.012939,39.009151 554.357544,38.958473 
	C555.134827,37.938316 555.567444,36.968834 556.000000,35.999676 
	C556.000000,36.000000 556.000000,35.999374 556.350708,35.966057 
	C558.152344,33.647999 559.603271,31.363266 561.149719,28.850960 
	C561.419434,28.328142 561.666077,28.117912 562.336548,27.964161 
	C564.793152,24.625071 566.898376,21.314522 569.001831,18.001987 
	C569.000000,18.000000 569.004883,18.003504 569.349731,17.955685 
	C570.135620,16.945160 570.576782,15.982452 571.009888,15.009462 
	C571.001831,14.999180 571.023621,15.016957 571.370667,14.977671 
	C573.806824,11.620739 575.895874,8.303092 577.991211,4.990759 
	C577.997498,4.996073 577.981262,4.984714 578.339355,4.955481 
	C579.464905,3.617499 580.232483,2.308751 581.000000,1.000002 
z"/>
<path fill="#6BCA29" opacity="1.000000" stroke="none" 
	d="
M580.750000,1.000002 
	C580.232483,2.308751 579.464905,3.617499 578.336304,4.601752 
	C577.972412,3.805566 577.969543,3.333874 577.966675,2.862181 
	C578.595764,2.438058 579.224792,2.013935 579.926941,1.294906 
	C580.000000,1.000000 580.500000,1.000000 580.750000,1.000002 
z"/>
<path fill="#82F530" opacity="1.000000" stroke="none" 
	d="
M584.035217,1.730841 
	C583.784973,1.797545 583.507324,1.621637 583.114868,1.222864 
	C583.000000,1.000000 583.500000,1.000000 583.750000,1.000000 
	C584.000000,1.000000 584.007874,1.488229 584.035217,1.730841 
z"/>
<path fill="#454544" opacity="1.000000" stroke="none" 
	d="
M310.233459,141.572906 
	C309.338226,139.240021 308.628204,137.257751 307.894409,135.209106 
	C303.962982,135.209106 300.203552,135.209106 295.999908,135.209106 
	C295.999908,147.700592 295.776306,159.993744 296.112335,172.271576 
	C296.242798,177.037933 294.689056,178.243546 290.134796,178.099899 
	C279.978424,177.779556 269.803802,177.910507 259.639099,178.044296 
	C255.648788,178.096817 253.953568,176.574951 253.959732,172.496353 
	C254.025177,129.163940 254.026031,85.831375 253.959091,42.498978 
	C253.952652,38.338272 255.366547,36.854637 259.742615,36.900764 
	C280.739899,37.122070 301.750610,36.599464 322.737610,37.113407 
	C343.518585,37.622303 360.684906,51.219578 365.916046,71.697250 
	C369.741943,86.674057 368.007629,101.076118 358.931763,114.016235 
	C356.956299,116.832794 354.631927,119.867798 351.731079,121.454048 
	C348.165649,123.403671 348.988556,125.191093 350.296051,127.729324 
	C357.361633,141.445786 364.408997,155.171707 371.418427,168.916901 
	C372.221649,170.492035 372.814178,172.185394 373.389954,173.863205 
	C374.267120,176.419235 373.378021,177.973846 370.589325,177.981415 
	C357.089691,178.018051 343.587860,178.101501 330.093231,177.838974 
	C328.726440,177.812378 326.892853,175.833069 326.140564,174.327805 
	C320.773987,163.589325 315.632050,152.738586 310.233459,141.572906 
M307.407715,99.000000 
	C309.233673,98.999161 311.071167,99.130814 312.883545,98.973488 
	C319.181854,98.426750 325.059967,91.797295 324.981018,85.442062 
	C324.920013,80.529968 320.197083,74.399612 315.509888,74.113052 
	C309.123383,73.722610 302.695129,74.015694 296.284882,74.015694 
	C296.284882,82.621422 296.284882,90.662338 296.284882,99.000000 
	C299.858490,99.000000 303.150635,99.000000 307.407715,99.000000 
z"/>
<path fill="#454544" opacity="1.000000" stroke="none" 
	d="
M877.000183,162.001587 
	C873.630371,154.758591 869.948730,148.041733 867.128174,140.980881 
	C865.143494,136.012497 862.178528,134.149094 857.105652,134.973190 
	C855.981567,135.155792 854.802490,134.999939 853.257874,134.999939 
	C853.165649,136.598511 853.013428,138.032883 853.010925,139.467499 
	C852.991089,150.795425 852.973145,162.123489 853.020325,173.451248 
	C853.030945,176.000320 852.957825,178.067642 849.463989,178.036774 
	C837.803772,177.933731 826.139832,178.101013 814.484558,177.840012 
	C813.298523,177.813431 812.026672,175.693008 811.067017,174.349670 
	C810.672791,173.797928 811.000061,172.730362 811.000061,171.897430 
	C810.999939,128.917847 811.082947,85.937897 810.887268,42.959213 
	C810.864685,37.993973 812.427917,36.845451 817.124878,36.899681 
	C837.445862,37.134308 857.771606,36.904121 878.094604,37.024414 
	C903.609680,37.175434 923.921448,57.538654 924.156189,82.850891 
	C924.283325,96.568230 921.435547,108.733200 911.702393,118.730484 
	C909.776794,120.708290 907.433289,122.279144 905.402466,123.939590 
	C913.102783,139.350174 920.694641,154.531754 928.274963,169.719055 
	C931.708008,176.597244 930.846069,177.998993 923.222900,177.999619 
	C911.728394,178.000565 900.232483,177.903183 888.740234,178.063858 
	C885.646423,178.107101 883.836182,177.050323 882.630859,174.257370 
	C880.898804,170.244049 878.926208,166.334564 877.000183,162.001587 
M853.000000,90.456718 
	C853.000000,93.222771 853.000000,95.988815 853.000000,99.000000 
	C858.069031,99.000000 862.551514,98.787880 867.005127,99.056038 
	C872.074036,99.361229 876.606567,97.721283 878.700989,93.439117 
	C880.432983,89.897980 881.380005,85.026100 880.366699,81.386444 
	C879.544617,78.433754 875.566895,74.876892 872.506592,74.340942 
	C866.271912,73.249054 859.712036,74.014168 853.000000,74.014168 
	C853.000000,79.538025 853.000000,84.502731 853.000000,90.456718 
z"/>
<path fill="#454544" opacity="1.000000" stroke="none" 
	d="
M704.453857,176.778137 
	C693.408508,171.832062 684.484070,165.060440 678.280518,154.864670 
	C673.172180,146.468826 670.233582,137.346619 670.119019,127.708969 
	C669.784180,99.547531 670.055542,71.379333 669.942627,43.214367 
	C669.924866,38.778671 670.944336,36.682926 676.030701,36.880486 
	C686.348022,37.281204 696.696228,37.174335 707.022522,36.913601 
	C711.093384,36.810814 712.101135,38.236012 712.076538,42.112396 
	C711.924194,66.110367 711.864685,90.111038 712.087891,114.107895 
	C712.149597,120.740219 713.227112,127.255180 716.658020,133.338867 
	C722.426697,143.567749 738.609436,145.254654 746.160706,134.588715 
	C749.524658,129.837265 751.107483,124.920235 751.069214,119.085762 
	C750.906372,94.254608 751.024109,69.421722 750.983276,44.589554 
	C750.972900,38.284801 752.341919,36.658794 758.679626,36.899376 
	C768.664795,37.278419 778.678528,37.156445 788.672546,36.920902 
	C792.503662,36.830605 794.026855,38.172070 794.021606,41.914757 
	C793.981201,70.580093 794.769775,99.272156 793.779419,127.903290 
	C792.819092,155.665543 773.948669,175.926239 746.057373,180.025528 
	C732.055847,182.083389 718.289734,181.600815 704.453857,176.778137 
z"/>
<path fill="#454544" opacity="1.000000" stroke="none" 
	d="
M239.981293,143.549057 
	C239.997498,153.338989 239.851837,162.675491 240.062500,172.003967 
	C240.166016,176.588470 238.298019,178.077255 233.852264,178.060944 
	C202.519806,177.945847 171.186569,177.956116 139.853973,178.051331 
	C135.610992,178.064224 133.940552,176.510422 133.948944,172.211578 
	C134.033203,129.045685 134.020813,85.879547 133.965637,42.713562 
	C133.960602,38.770317 134.907608,36.866276 139.527695,36.896099 
	C170.525955,37.096176 201.526627,37.086544 232.525192,36.910404 
	C237.375168,36.882851 239.024506,38.905651 239.008499,43.291466 
	C238.978073,51.624573 239.030624,59.958023 238.988495,68.291031 
	C238.962189,73.493088 237.488403,74.978004 232.276062,74.987961 
	C215.609695,75.019791 198.943222,74.999817 182.276794,74.999847 
	C180.656311,74.999855 179.035812,74.999855 177.211365,74.999855 
	C177.211365,79.720833 177.211365,84.002403 177.211365,88.746475 
	C178.546112,88.827370 179.971268,88.986420 181.396698,88.988716 
	C193.729828,89.008575 206.063751,89.077713 218.395706,88.955902 
	C222.409088,88.916260 224.117157,90.479332 224.042007,94.539093 
	C223.897034,102.369629 224.000427,110.204750 223.999680,118.037971 
	C223.999023,124.993279 223.998337,124.997246 216.721512,124.998978 
	C203.727463,125.002075 190.733414,124.999855 177.369781,124.999855 
	C177.369781,129.847717 177.369781,134.582764 177.369781,140.000122 
	C178.773422,140.000122 180.362488,140.000122 181.951553,140.000122 
	C199.284637,140.000137 216.619125,139.899155 233.948959,140.136276 
	C235.967819,140.163895 237.961121,142.061600 239.981293,143.549057 
z"/>
<path fill="#454544" opacity="1.000000" stroke="none" 
	d="
M573.947144,36.749771 
	C598.923889,36.833179 623.900574,36.927677 648.877319,36.994942 
	C659.999939,37.024895 660.000000,37.000000 660.000000,47.952625 
	C660.000000,55.115154 659.891968,62.279942 660.041992,69.439323 
	C660.126648,73.480881 658.449707,75.068893 654.422974,75.043602 
	C637.797913,74.939217 621.171875,74.999863 604.274048,74.999863 
	C604.274048,82.714676 604.274048,90.108734 604.274048,98.000000 
	C615.977356,98.000000 627.584045,97.994553 639.190735,98.002167 
	C645.554932,98.006340 645.991394,98.446640 645.998169,104.825859 
	C646.006104,112.321518 646.006531,119.817207 645.997864,127.312866 
	C645.991455,132.830292 644.942261,133.961502 639.428040,133.984909 
	C627.799805,134.034256 616.171326,133.999908 604.000000,133.999908 
	C604.000000,146.752197 603.768066,159.191544 604.114380,171.614777 
	C604.252686,176.577789 603.014099,178.335190 597.796265,178.121582 
	C587.652527,177.706299 577.475037,177.822464 567.321167,178.086121 
	C563.176636,178.193741 561.890747,176.966003 561.910706,172.736588 
	C562.070374,138.923553 562.001648,105.109428 561.992798,71.295639 
	C561.992493,70.133667 561.886108,68.971718 561.808411,66.993164 
	C565.840820,56.367638 569.893982,46.558708 573.947144,36.749771 
z"/>
<path fill="#454544" opacity="1.000000" stroke="none" 
	d="
M453.056183,127.680496 
	C453.037445,142.833252 452.924316,157.986923 453.068634,173.138123 
	C453.103241,176.771896 452.088867,178.152618 448.279907,178.074387 
	C437.793671,177.858963 427.292664,177.768356 416.812775,178.104431 
	C412.061951,178.256790 410.935669,176.329208 410.948883,172.078186 
	C411.044250,141.439072 410.999939,110.799522 410.999939,80.160110 
	C410.999939,79.005783 410.999939,77.851463 410.999939,76.000015 
	C401.594696,76.000015 392.338806,75.756699 383.102936,76.082550 
	C376.564026,76.313263 374.917847,75.482246 374.984436,67.847183 
	C375.054108,59.854904 374.969818,51.861389 375.009949,43.868702 
	C375.039764,37.930943 376.001282,37.002289 381.886261,37.001678 
	C415.689514,36.998177 449.493408,37.097023 483.295380,36.889706 
	C488.069305,36.860428 489.262756,38.351757 489.097137,42.877594 
	C488.768494,51.857567 488.855316,60.861362 489.061523,69.848633 
	C489.163452,74.290543 487.601532,76.158936 483.015991,76.062843 
	C473.218201,75.857529 463.413147,76.000000 452.957672,76.000000 
	C452.957672,83.839638 452.957672,91.431496 452.530212,99.424881 
	C448.385132,98.893272 444.667572,97.960152 440.583984,97.014542 
	C439.486786,97.035919 438.755554,97.069786 437.693176,97.208267 
	C436.764771,97.607796 436.160553,97.889465 435.571381,98.199715 
	C429.952026,101.158638 429.603058,103.086060 433.927643,107.490318 
	C436.262665,109.868423 438.702728,112.146027 440.984528,114.573219 
	C445.052734,118.900627 449.036865,123.307098 453.056183,127.680496 
z"/>
<path fill="#82F530" opacity="1.000000" stroke="none" 
	d="
M574.076050,36.429115 
	C569.893982,46.558708 565.840820,56.367638 561.678284,66.532928 
	C550.885071,92.691788 540.175232,118.483604 529.530945,144.302444 
	C525.688843,153.621964 522.003845,163.006287 517.755249,172.477676 
	C516.025818,170.488892 515.156860,168.019623 513.493408,166.334717 
	C497.994385,150.636139 482.311981,135.118729 466.789124,119.443481 
	C461.572601,114.175751 456.661285,108.605797 452.018677,103.141815 
	C453.850586,103.538986 455.319733,103.856651 456.690796,104.415154 
	C468.184662,109.097275 479.621979,113.922150 491.178223,118.443657 
	C493.203278,119.236000 495.704803,118.810600 497.933472,118.934753 
	C497.880676,118.921906 497.890320,118.813637 498.162598,118.885414 
	C498.620819,118.982780 498.806793,119.008362 498.992737,119.033936 
	C500.710388,122.748688 502.298126,120.335060 503.491791,118.757919 
	C506.086365,115.329674 508.444611,111.722733 510.904480,108.192299 
	C528.120972,83.482704 545.299438,58.746410 562.577271,34.079754 
	C568.738098,25.284300 575.180725,16.686653 581.396362,7.928922 
	C582.511902,6.357164 583.146545,4.444122 584.019226,2.314723 
	C587.852966,3.053266 587.124023,5.628435 586.016235,8.254507 
	C582.096252,17.546383 578.144531,26.824873 574.076050,36.429115 
z"/>
<path fill="#9A9691" opacity="1.000000" stroke="none" 
	d="
M729.754211,213.532608 
	C728.798645,214.456528 728.027527,215.055328 728.157410,214.954468 
	C729.858826,218.952469 732.317627,222.528503 732.805176,226.355667 
	C733.690918,233.307510 728.838745,237.952591 721.821716,237.991760 
	C715.165710,238.028931 708.509277,237.999741 701.427124,237.999741 
	C701.427124,224.092499 701.427124,210.390884 701.427124,196.144409 
	C708.627075,196.144409 715.923523,195.683975 723.132446,196.280807 
	C729.645996,196.820038 735.113831,206.046173 729.754211,213.532608 
M709.843994,230.792526 
	C712.504395,230.861343 715.164978,230.921982 717.825073,231.000961 
	C721.283447,231.103638 723.585876,229.736893 723.972229,226.065933 
	C724.386047,222.134384 721.571899,220.665329 718.588928,220.158905 
	C715.578308,219.647781 712.413208,220.046295 709.198853,220.046295 
	C709.198853,223.852554 709.198853,226.990891 709.843994,230.792526 
M721.930298,204.526596 
	C717.737061,203.858154 713.543823,203.189713 709.315796,202.515717 
	C709.315796,206.773605 709.315796,209.683380 709.315796,212.999863 
	C711.742065,212.999863 713.857300,213.020660 715.971985,212.995911 
	C721.951721,212.925949 723.393372,211.183731 721.930298,204.526596 
z"/>
<path fill="#9A9691" opacity="1.000000" stroke="none" 
	d="
M905.987366,196.000122 
	C911.495728,196.284271 916.534424,195.267563 921.279602,198.524658 
	C930.470032,204.833115 931.480530,214.351791 929.287964,224.045471 
	C927.086670,233.777649 920.498474,237.996521 909.919312,237.999619 
	C905.135132,238.001022 900.350952,237.999863 895.289246,237.999863 
	C895.289246,223.940353 895.289246,210.368622 895.289246,196.000122 
	C898.669495,196.000122 902.083069,196.000122 905.987366,196.000122 
M919.651245,209.254288 
	C914.739014,202.531387 912.033997,201.579529 904.294373,203.820908 
	C904.294373,212.744049 904.294373,221.650970 904.294373,231.780289 
	C908.347778,230.791031 912.279785,230.639359 915.321350,228.916107 
	C921.143066,225.617737 922.504211,218.635834 919.651245,209.254288 
z"/>
<path fill="#9A9691" opacity="1.000000" stroke="none" 
	d="
M433.826355,237.999878 
	C428.735168,237.999878 424.119781,237.999878 419.261200,237.999878 
	C419.261200,223.876511 419.261200,210.298508 419.261200,195.715652 
	C426.715881,196.076736 434.296143,195.405640 441.354095,197.019287 
	C453.128906,199.711365 456.548676,216.027725 452.600922,225.829453 
	C449.237122,234.181259 443.486664,237.967133 433.826355,237.999878 
M435.938171,203.008179 
	C433.366669,203.008179 430.795166,203.008179 428.294739,203.008179 
	C428.294739,212.744522 428.294739,221.652039 428.294739,230.511246 
	C437.863464,231.845230 441.735779,229.560974 444.296600,221.286804 
	C446.558197,213.979370 443.338409,206.159546 435.938171,203.008179 
z"/>
<path fill="#9A9691" opacity="1.000000" stroke="none" 
	d="
M520.777710,213.432281 
	C520.135498,214.644226 519.838013,215.878662 519.094116,216.274796 
	C513.164490,219.432404 515.761169,223.700531 517.431091,227.871368 
	C518.690247,231.016418 519.963074,234.155991 521.273499,237.406387 
	C512.883118,238.760437 512.870911,238.765640 510.057648,232.153732 
	C509.545044,230.948914 509.169128,229.685226 508.744598,228.443756 
	C505.999237,220.416031 505.674225,220.226730 496.174866,221.486313 
	C496.174866,226.671127 496.174866,231.931900 496.174866,237.592865 
	C493.372986,237.592865 491.002167,237.592865 488.310120,237.592865 
	C488.310120,223.998352 488.310120,210.413864 488.310120,196.428345 
	C496.442719,196.428345 504.714813,195.827896 512.847778,196.632812 
	C518.570740,197.199188 521.795105,202.985504 521.352539,209.124069 
	C521.257507,210.441803 521.063904,211.752426 520.777710,213.432281 
M512.877441,207.728302 
	C509.958344,202.555878 505.633087,201.505737 496.270294,203.731995 
	C496.270294,206.973816 496.270294,210.230103 496.270294,213.999634 
	C499.484131,213.999634 502.438232,213.932175 505.388031,214.016159 
	C509.374664,214.129654 512.083557,212.607056 512.877441,207.728302 
z"/>
<path fill="#9A9691" opacity="1.000000" stroke="none" 
	d="
M225.998932,196.000122 
	C230.912567,196.302139 235.685516,195.639923 239.682770,197.100540 
	C248.906281,200.470856 250.022232,212.633408 242.073822,218.472748 
	C241.396011,218.970703 240.639847,219.362030 240.214401,219.622604 
	C241.502670,223.270187 242.476364,226.202591 243.575165,229.087341 
	C244.616333,231.820816 245.788666,234.504318 246.915878,237.240280 
	C238.991791,239.082779 238.620483,238.848724 235.791107,231.613739 
	C234.426758,228.124939 232.864182,224.713654 231.388290,221.260071 
	C228.388794,221.260071 225.458160,221.260071 222.096985,221.260071 
	C222.096985,226.759903 222.096985,232.019760 222.096985,237.633194 
	C219.298248,237.633194 216.929565,237.633194 214.276489,237.633194 
	C214.276489,223.932327 214.276489,210.359650 214.276489,196.000122 
	C218.013351,196.000122 221.759644,196.000122 225.998932,196.000122 
M230.266205,203.000000 
	C227.670944,203.000000 225.075699,203.000000 222.350220,203.000000 
	C222.350220,206.932755 222.350220,210.288406 222.350220,213.999908 
	C225.483826,213.999908 228.274399,213.910400 231.056931,214.021637 
	C234.898758,214.175217 237.658752,212.696365 237.910416,208.707123 
	C238.195541,204.187439 235.217834,202.795212 230.266205,203.000000 
z"/>
<path fill="#9A9691" opacity="1.000000" stroke="none" 
	d="
M677.303040,233.623199 
	C676.007019,230.011353 675.152771,226.635178 673.724670,223.522263 
	C671.451721,218.567993 667.054810,222.039688 663.067810,220.854752 
	C663.067810,226.733353 663.067810,232.124771 663.067810,237.745468 
	C660.199524,237.745468 657.940613,237.745468 655.339844,237.745468 
	C655.339844,223.943970 655.339844,210.241959 655.339844,196.031036 
	C663.133423,196.031036 670.851379,195.286911 678.306091,196.364227 
	C681.718994,196.857452 686.169495,200.350800 687.362427,203.529526 
	C688.969055,207.810242 689.846680,213.915970 684.974854,217.254517 
	C681.029175,219.958313 682.120361,222.559341 683.333374,225.656494 
	C684.873596,229.588974 686.502563,233.486710 688.251404,237.788483 
	C683.737122,237.765213 679.193481,239.844498 677.303040,233.623199 
M667.576172,213.999893 
	C669.724609,213.995575 671.878296,214.085190 674.020325,213.965607 
	C677.508667,213.770889 679.553711,211.609222 679.495728,208.349228 
	C679.442078,205.330490 677.470764,203.172668 674.170410,203.051117 
	C670.593079,202.919388 667.007263,203.021255 663.004333,203.021255 
	C663.004333,206.049988 663.154053,208.504059 662.965881,210.931961 
	C662.738098,213.871490 664.410400,214.191483 667.576172,213.999893 
z"/>
<path fill="#43870B" opacity="1.000000" stroke="none" 
	d="
M451.610474,103.173950 
	C456.661285,108.605797 461.572601,114.175751 466.789124,119.443481 
	C482.311981,135.118729 497.994385,150.636139 513.493408,166.334717 
	C515.156860,168.019623 516.025818,170.488892 517.552612,172.773621 
	C517.850098,173.202820 517.858276,173.452698 517.644775,173.989685 
	C517.423096,174.276779 517.461243,174.559937 517.461243,174.559937 
	C517.461243,174.559937 517.204895,174.836090 516.609314,174.901581 
	C512.283325,175.512482 509.298492,174.446594 506.838684,171.407135 
	C504.036011,167.944092 501.030914,164.621643 497.892395,161.457672 
	C484.568054,148.025192 471.205261,134.630020 457.762604,121.316055 
	C452.709534,116.311371 447.084778,111.848503 442.349457,106.574051 
	C440.136780,104.109421 439.419434,100.302307 438.024353,97.103661 
	C438.755554,97.069786 439.486786,97.035919 440.781769,97.305214 
	C444.767181,99.463577 448.188843,101.318764 451.610474,103.173950 
z"/>
<path fill="#3E7715" opacity="1.000000" stroke="none" 
	d="
M437.693176,97.208267 
	C439.419434,100.302307 440.136780,104.109421 442.349457,106.574051 
	C447.084778,111.848503 452.709534,116.311371 457.762604,121.316055 
	C471.205261,134.630020 484.568054,148.025192 497.892395,161.457672 
	C501.030914,164.621643 504.036011,167.944092 506.838684,171.407135 
	C509.298492,174.446594 512.283325,175.512482 516.427917,174.952454 
	C514.036560,176.581879 511.389679,178.821228 508.361053,179.628662 
	C506.753143,180.057327 504.035889,178.450455 502.580872,176.999039 
	C487.520477,161.976135 472.617249,146.795700 457.664062,131.665237 
	C456.378967,130.364914 455.049103,129.108856 453.398102,127.756378 
	C449.036865,123.307098 445.052734,118.900627 440.984528,114.573219 
	C438.702728,112.146027 436.262665,109.868423 433.927643,107.490318 
	C429.603058,103.086060 429.952026,101.158638 435.571381,98.199715 
	C436.160553,97.889465 436.764771,97.607796 437.693176,97.208267 
z"/>
<path fill="#9A9691" opacity="1.000000" stroke="none" 
	d="
M818.000000,230.932724 
	C818.000000,233.387436 818.000000,235.357101 818.000000,237.660782 
	C815.361938,237.660782 813.107361,237.660782 810.424133,237.660782 
	C810.424133,224.086716 810.424133,210.386353 810.424133,196.341751 
	C812.632629,196.341751 814.886658,196.341751 817.768372,196.341751 
	C817.768372,201.568619 817.768372,206.953217 817.768372,212.661560 
	C822.968750,212.661560 827.556946,212.661560 832.777344,212.661560 
	C832.777344,207.429306 832.777344,202.038788 832.777344,196.333466 
	C835.649719,196.333466 837.906006,196.333466 840.583313,196.333466 
	C840.583313,209.919449 840.583313,223.622314 840.583313,237.663910 
	C838.355408,237.663910 836.099854,237.663910 833.218994,237.663910 
	C833.218994,232.087616 833.218994,226.369888 833.218994,220.333191 
	C828.019653,220.333191 823.431641,220.333191 818.000000,220.333191 
	C818.000000,223.623383 818.000000,227.035538 818.000000,230.932724 
z"/>
<path fill="#9A9691" opacity="1.000000" stroke="none" 
	d="
M561.861816,236.779877 
	C552.721924,237.227112 543.674438,237.227112 534.310547,237.227112 
	C534.310547,223.967102 534.310547,210.378647 534.310547,196.394104 
	C543.314941,196.394104 552.357727,196.394104 561.700928,196.394104 
	C561.700928,198.384338 561.700928,200.313553 561.700928,202.857697 
	C555.707703,202.857697 549.642944,202.857697 543.297485,202.857697 
	C543.297485,206.384232 543.297485,209.311157 543.297485,212.861053 
	C547.994141,212.861053 552.718445,212.861053 557.711914,212.861053 
	C557.711914,215.403290 557.711914,217.332123 557.711914,219.876358 
	C553.015198,219.876358 548.288147,219.876358 543.287903,219.876358 
	C543.287903,223.737579 543.287903,226.996307 543.287903,230.878632 
	C549.346558,230.878632 555.408203,230.878632 561.954224,230.878632 
	C561.954224,233.105362 561.954224,234.718994 561.861816,236.779877 
z"/>
<path fill="#9A9691" opacity="1.000000" stroke="none" 
	d="
M194.908539,196.000122 
	C197.367188,196.000137 199.338806,196.000137 201.651764,196.000137 
	C201.651764,198.408325 201.651764,200.442383 201.651764,202.930374 
	C195.216934,202.930374 188.949829,202.930374 182.347641,202.930374 
	C182.347641,206.407669 182.347641,209.445847 182.347641,212.937119 
	C187.464432,212.937119 192.398239,212.937119 197.657059,212.937119 
	C197.657059,215.414368 197.657059,217.450439 197.657059,219.939178 
	C192.541458,219.939178 187.606384,219.939178 182.342438,219.939178 
	C182.342438,223.624222 182.342438,226.883331 182.342438,230.769669 
	C188.564545,230.769669 194.953186,230.769669 201.661469,230.769669 
	C201.661469,233.426819 201.661469,235.463379 201.661469,237.751312 
	C192.526169,237.751312 183.603683,237.751312 174.339905,237.751312 
	C174.339905,224.031006 174.339905,210.444534 174.339905,196.000122 
	C180.929077,196.000122 187.675293,196.000122 194.908539,196.000122 
z"/>
<path fill="#9A9691" opacity="1.000000" stroke="none" 
	d="
M397.912109,219.999847 
	C394.474670,219.999863 391.514313,219.999863 388.285645,219.999863 
	C388.285645,223.741928 388.285645,227.000015 388.285645,230.880035 
	C394.679901,230.880035 401.074799,230.880035 407.722473,230.880035 
	C407.722473,233.418747 407.722473,235.345459 407.722473,237.640869 
	C398.661194,237.640869 389.613922,237.640869 380.281738,237.640869 
	C380.281738,223.910309 380.281738,210.324356 380.281738,196.368469 
	C389.035065,196.368469 397.743561,196.368469 406.726379,196.368469 
	C406.726379,198.429367 406.726379,200.357712 406.726379,202.900085 
	C400.658447,202.900085 394.592804,202.900085 388.275269,202.900085 
	C388.275269,206.428757 388.275269,209.354233 388.275269,212.900055 
	C393.370911,212.900055 398.429474,212.900055 403.733368,212.900055 
	C403.733368,215.441452 403.733368,217.369644 403.733368,219.999832 
	C401.921997,219.999832 400.155609,219.999832 397.912109,219.999847 
z"/>
<path fill="#9A9691" opacity="1.000000" stroke="none" 
	d="
M882.994751,199.955139 
	C881.773560,201.273773 880.595886,202.802948 879.329468,202.880417 
	C874.521362,203.174454 869.684448,202.998856 864.430176,202.998856 
	C864.430176,206.245255 864.430176,209.284546 864.430176,212.787811 
	C869.298645,212.787811 874.226746,212.787811 879.574341,212.787811 
	C879.574341,215.268723 879.574341,217.306549 879.574341,219.793701 
	C874.702759,219.793701 869.768738,219.793701 864.419128,219.793701 
	C864.419128,223.597214 864.419128,226.969528 864.419128,230.805923 
	C870.656677,230.805923 876.916077,230.805923 883.584595,230.805923 
	C883.584595,233.288071 883.584595,235.325592 883.584595,237.685242 
	C874.678650,237.685242 865.749390,237.685242 856.408386,237.685242 
	C856.408386,224.047592 856.408386,210.340912 856.408386,196.020218 
	C864.531250,196.020218 872.641479,195.924835 880.741211,196.171982 
	C881.526428,196.195953 882.247009,198.339447 882.994751,199.955139 
z"/>
<path fill="#9A9691" opacity="1.000000" stroke="none" 
	d="
M340.611755,220.897003 
	C336.345123,220.967972 332.534302,220.967972 328.102264,220.967972 
	C328.102264,226.703766 328.102264,232.090591 328.102264,237.731308 
	C324.892303,237.731308 322.299835,237.731308 319.351929,237.731308 
	C319.351929,223.951950 319.351929,210.242203 319.351929,196.265228 
	C328.124664,196.265228 336.712799,196.265228 345.649902,196.265228 
	C345.649902,198.406265 345.649902,200.443314 345.649902,202.929886 
	C339.885284,202.929886 334.282623,202.929886 328.346893,202.929886 
	C328.346893,206.616333 328.346893,209.875214 328.346893,213.764099 
	C332.567535,213.764099 336.950684,213.764099 342.279663,213.764099 
	C341.792969,216.599655 341.430267,218.712845 340.611755,220.897003 
z"/>
<path fill="#4F8035" opacity="1.000000" stroke="none" 
	d="
M577.602783,2.922398 
	C577.969543,3.333874 577.972412,3.805566 577.978271,4.630986 
	C577.981262,4.984714 577.997498,4.996073 577.685303,5.133417 
	C575.256653,8.519493 573.140137,11.768225 571.023621,15.016957 
	C571.023621,15.016957 571.001831,14.999180 570.715942,15.139527 
	C569.955078,16.187756 569.479980,17.095638 569.004883,18.003511 
	C569.004883,18.003504 569.000000,18.000000 568.693481,18.140217 
	C566.253052,21.517859 564.119080,24.755281 561.985168,27.992704 
	C561.666077,28.117912 561.419434,28.328142 560.835632,28.971682 
	C558.950684,31.546438 557.475342,33.772907 556.000000,35.999374 
	C556.000000,35.999374 556.000000,36.000000 555.710083,36.136871 
	C554.951050,37.185551 554.481995,38.097355 554.012939,39.009155 
	C554.012939,39.009151 554.000000,38.999847 553.710327,39.133095 
	C552.941040,40.172821 552.461487,41.079304 551.981995,41.985790 
	C551.981995,41.985794 552.000000,42.000153 551.700684,42.127502 
	C550.929199,43.165886 550.456970,44.076927 549.984802,44.987968 
	C549.984802,44.987972 550.000000,45.000000 549.689453,45.136208 
	C547.923401,47.517818 546.467896,49.763222 545.012390,52.008629 
	C545.012390,52.008633 545.000000,51.999847 544.710205,52.133442 
	C543.941711,53.173885 543.463074,54.080734 542.984375,54.987583 
	C542.984375,54.987579 543.000000,55.000000 542.702087,55.127876 
	C541.922974,56.162880 541.441772,57.070011 540.960571,57.977142 
	C540.648254,58.117214 540.410278,58.337566 539.841003,58.986107 
	C537.956238,61.555363 536.477112,63.776711 534.997925,65.998047 
	C534.997925,65.998047 535.000000,66.000000 534.706421,66.130447 
	C533.931702,67.165482 533.450562,68.070076 532.969482,68.974663 
	C532.969482,68.974663 532.997559,68.999146 532.681152,69.132629 
	C530.243042,72.510246 528.121338,75.754379 525.999695,78.998520 
	C525.999695,78.998528 526.000000,79.000000 525.706909,79.133331 
	C524.949158,80.182182 524.484497,81.097694 524.019775,82.013214 
	C524.019775,82.013214 524.000000,81.999390 523.714111,82.138893 
	C522.952209,83.185394 522.476074,84.092392 522.000000,84.999390 
	C522.000000,84.999390 522.000000,85.000000 521.706909,85.130051 
	C520.927124,86.164276 520.440491,87.068443 519.953918,87.972618 
	C519.406372,88.508881 518.858826,89.045143 517.885986,89.946320 
	C516.968628,91.203178 516.476562,92.095108 515.984436,92.987045 
	C515.984436,92.987045 516.000000,93.000000 515.689514,93.136757 
	C513.922241,95.517494 512.465393,97.761467 511.008636,100.005447 
	C511.008636,100.005455 511.000000,100.000000 510.709167,100.133652 
	C509.943665,101.176430 509.468994,102.085548 508.994324,102.994659 
	C508.994324,102.994659 509.000000,103.000000 508.697784,103.146095 
	C507.268555,105.198006 506.141541,107.103813 505.014526,109.009613 
	C505.014496,109.009613 505.000000,108.999695 504.711395,109.134918 
	C503.943329,110.175598 503.463867,111.081062 502.984406,111.986519 
	C502.984406,111.986519 503.000000,111.999695 502.689636,112.135056 
	C500.882996,114.451485 499.386658,116.632568 497.890320,118.813644 
	C497.890320,118.813637 497.880676,118.921906 497.596008,118.875389 
	C496.104340,118.216331 494.897369,117.603798 493.690399,116.991257 
	C505.599060,99.959663 517.460388,82.894737 529.428772,65.905235 
	C543.211609,46.340179 557.028076,26.797922 571.019104,7.382042 
	C572.423279,5.433424 575.134399,4.426543 577.602783,2.922398 
z"/>
<path fill="#9A9691" opacity="1.000000" stroke="none" 
	d="
M588.064941,220.999878 
	C585.950195,220.999878 584.313477,220.999878 582.224548,220.999878 
	C582.224548,226.630142 582.224548,231.888748 582.224548,237.570999 
	C579.412231,237.570999 577.040039,237.570999 574.327881,237.570999 
	C574.327881,224.031219 574.327881,210.438782 574.327881,196.422150 
	C582.919373,196.422150 591.627441,196.422150 600.668823,196.422150 
	C600.668823,198.314148 600.668823,200.235703 600.668823,202.788910 
	C594.758301,202.788910 588.702637,202.788910 582.330688,202.788910 
	C582.330688,206.649734 582.330688,209.910187 582.330688,213.795563 
	C586.924744,213.795563 591.645386,213.795563 596.675598,213.795563 
	C596.675598,216.333801 596.675598,218.258881 596.675598,220.999878 
	C594.043274,220.999878 591.293091,220.999878 588.064941,220.999878 
z"/>
<path fill="#9A9691" opacity="1.000000" stroke="none" 
	d="
M266.000000,218.004028 
	C266.000000,212.874527 266.000000,208.244080 266.000000,203.174210 
	C262.314331,203.174210 259.055176,203.174210 255.400467,203.174210 
	C255.400467,200.693863 255.400467,198.654907 255.400467,196.304626 
	C265.340271,196.304626 275.264008,196.304626 285.594055,196.304626 
	C285.594055,198.295410 285.594055,200.328094 285.594055,202.820114 
	C282.328766,202.820114 279.062927,202.820114 275.178162,202.820114 
	C275.178162,214.616211 275.178162,226.003113 275.178162,237.687271 
	C271.981140,237.687271 269.389191,237.687271 266.000000,237.687271 
	C266.000000,231.352264 266.000000,224.927673 266.000000,218.004028 
z"/>
<path fill="#9A9691" opacity="1.000000" stroke="none" 
	d="
M745.000000,229.935333 
	C745.000000,218.488358 745.000000,207.530945 745.000000,196.290527 
	C748.064087,196.290527 750.657715,196.290527 753.627625,196.290527 
	C753.627625,210.003036 753.627625,223.713623 753.627625,237.713257 
	C750.928284,237.713257 748.334961,237.713257 745.000000,237.713257 
	C745.000000,235.280212 745.000000,232.852570 745.000000,229.935333 
z"/>
<path fill="#9A9691" opacity="1.000000" stroke="none" 
	d="
M305.000000,222.995636 
	C305.000000,228.125610 305.000000,232.756409 305.000000,237.688141 
	C301.978149,237.688141 299.383667,237.688141 296.392609,237.688141 
	C296.392609,224.044403 296.392609,210.335251 296.392609,196.311630 
	C299.022278,196.311630 301.616760,196.311630 305.000000,196.311630 
	C305.000000,204.985596 305.000000,213.741028 305.000000,222.995636 
z"/>
<path fill="#9A9691" opacity="1.000000" stroke="none" 
	d="
M365.000000,231.881027 
	C364.999969,234.007233 364.999969,235.650864 364.999969,237.641571 
	C362.277252,237.641571 359.905945,237.641571 357.263794,237.641571 
	C357.263794,223.884705 357.263794,210.293961 357.263794,196.351761 
	C359.734863,196.351761 362.106476,196.351761 365.000000,196.351761 
	C365.000000,208.154053 365.000000,219.776260 365.000000,231.881027 
z"/>
<path fill="#91F850" opacity="1.000000" stroke="none" 
	d="
M493.325500,116.970932 
	C494.897369,117.603798 496.104340,118.216331 497.648804,118.888229 
	C495.704803,118.810600 493.203278,119.236000 491.178223,118.443657 
	C479.621979,113.922150 468.184662,109.097275 456.690796,104.415154 
	C455.319733,103.856651 453.850586,103.538986 452.018677,103.141815 
	C448.188843,101.318764 444.767181,99.463577 441.147766,97.317703 
	C444.667572,97.960152 448.385132,98.893272 452.453857,99.884323 
	C466.190186,105.611702 479.575378,111.281151 493.325500,116.970932 
z"/>
<path fill="#82F530" opacity="1.000000" stroke="none" 
	d="
M517.535828,174.605621 
	C517.461243,174.559937 517.423096,174.276779 517.503418,174.337021 
	C517.583679,174.397263 517.610413,174.651291 517.535828,174.605621 
z"/>
<path fill="#FFFFFF" opacity="1.000000" stroke="none" 
	d="
M996.005432,143.000000 
	C992.549133,143.000000 989.582581,143.000000 986.310791,143.000000 
	C986.310791,135.383392 986.310791,128.008789 986.310791,119.590347 
	C993.569885,120.085251 1000.915344,120.169289 1008.119873,121.219696 
	C1013.153259,121.953552 1016.668030,128.137497 1015.992798,133.275894 
	C1015.298706,138.557800 1010.878662,142.705093 1005.453613,142.972672 
	C1002.474243,143.119614 999.481689,142.999634 996.005432,143.000000 
z"/>
<path fill="#FFFFFF" opacity="1.000000" stroke="none" 
	d="
M1000.121460,89.404419 
	C995.368164,89.696472 990.943176,89.696472 986.259644,89.696472 
	C986.259644,84.279785 986.259644,78.904129 986.259644,73.005180 
	C991.247681,73.005180 996.176208,72.796707 1001.078552,73.065102 
	C1005.773438,73.322151 1009.987671,77.101181 1009.998962,80.519554 
	C1010.013550,84.926605 1006.120300,88.429909 1000.121460,89.404419 
z"/>
<path fill="#6BCA29" opacity="1.000000" stroke="none" 
	d="
M562.336548,27.964161 
	C564.119080,24.755281 566.253052,21.517859 568.695312,18.142204 
	C566.898376,21.314522 564.793152,24.625071 562.336548,27.964161 
z"/>
<path fill="#6BCA29" opacity="1.000000" stroke="none" 
	d="
M571.370667,14.977671 
	C573.140137,11.768225 575.256653,8.519493 577.679077,5.128103 
	C575.895874,8.303092 573.806824,11.620739 571.370667,14.977671 
z"/>
<path fill="#6BCA29" opacity="1.000000" stroke="none" 
	d="
M526.349487,78.967133 
	C528.121338,75.754379 530.243042,72.510246 532.669067,69.121140 
	C530.882080,72.296043 528.790710,75.615898 526.349487,78.967133 
z"/>
<path fill="#6BCA29" opacity="1.000000" stroke="none" 
	d="
M498.162598,118.885422 
	C499.386658,116.632568 500.882996,114.451485 502.682587,112.129150 
	C501.855957,114.224884 500.726044,116.461891 499.294434,118.866409 
	C498.806793,119.008362 498.620819,118.982780 498.162598,118.885422 
z"/>
<path fill="#6BCA29" opacity="1.000000" stroke="none" 
	d="
M556.350708,35.966057 
	C557.475342,33.772907 558.950684,31.546438 560.740112,29.199249 
	C559.603271,31.363266 558.152344,33.647999 556.350708,35.966057 
z"/>
<path fill="#6BCA29" opacity="1.000000" stroke="none" 
	d="
M535.348877,65.966530 
	C536.477112,63.776711 537.956238,61.555363 539.749878,59.215477 
	C538.609497,61.376289 537.154663,63.655647 535.348877,65.966530 
z"/>
<path fill="#6BCA29" opacity="1.000000" stroke="none" 
	d="
M545.362732,51.973831 
	C546.467896,49.763222 547.923401,47.517818 549.683105,45.130207 
	C548.562561,47.305012 547.137817,49.622021 545.362732,51.973831 
z"/>
<path fill="#6BCA29" opacity="1.000000" stroke="none" 
	d="
M511.359192,99.971039 
	C512.465393,97.761467 513.922241,95.517494 515.682739,93.130692 
	C514.560913,95.304115 513.135315,97.620377 511.359192,99.971039 
z"/>
<path fill="#6BCA29" opacity="1.000000" stroke="none" 
	d="
M505.368652,108.971985 
	C506.141541,107.103813 507.268555,105.198006 508.695007,103.143974 
	C507.903900,104.975281 506.813354,106.954811 505.368652,108.971985 
z"/>
<path fill="#6BCA29" opacity="1.000000" stroke="none" 
	d="
M503.331543,111.944313 
	C503.463867,111.081062 503.943329,110.175598 504.716461,109.141228 
	C504.566315,109.975578 504.122528,110.938843 503.331543,111.944313 
z"/>
<path fill="#6BCA29" opacity="1.000000" stroke="none" 
	d="
M509.340179,102.947800 
	C509.468994,102.085548 509.943665,101.176430 510.712036,100.137367 
	C510.565826,100.971924 510.125916,101.936424 509.340179,102.947800 
z"/>
<path fill="#6BCA29" opacity="1.000000" stroke="none" 
	d="
M516.325928,92.947090 
	C516.476562,92.095108 516.968628,91.203178 517.766235,90.212425 
	C517.603638,91.044785 517.135559,91.975960 516.325928,92.947090 
z"/>
<path fill="#6BCA29" opacity="1.000000" stroke="none" 
	d="
M520.304871,87.935883 
	C520.440491,87.068443 520.927124,86.164276 521.706909,85.130203 
	C521.551941,85.966591 521.103882,86.932869 520.304871,87.935883 
z"/>
<path fill="#6BCA29" opacity="1.000000" stroke="none" 
	d="
M522.345276,84.952850 
	C522.476074,84.092392 522.952209,83.185394 523.721313,82.147476 
	C523.573059,82.979813 523.131836,83.943062 522.345276,84.952850 
z"/>
<path fill="#6BCA29" opacity="1.000000" stroke="none" 
	d="
M524.363037,81.959160 
	C524.484497,81.097694 524.949158,80.182182 525.706299,79.133072 
	C525.567932,79.968025 525.137146,80.936569 524.363037,81.959160 
z"/>
<path fill="#6BCA29" opacity="1.000000" stroke="none" 
	d="
M533.318909,68.936462 
	C533.450562,68.070076 533.931702,67.165482 534.705200,66.129761 
	C534.554504,66.965164 534.111389,67.931709 533.318909,68.936462 
z"/>
<path fill="#6BCA29" opacity="1.000000" stroke="none" 
	d="
M541.311157,57.937069 
	C541.441772,57.070011 541.922974,56.162880 542.695557,55.121666 
	C542.545166,55.957382 542.103455,56.927189 541.311157,57.937069 
z"/>
<path fill="#6BCA29" opacity="1.000000" stroke="none" 
	d="
M543.331665,54.944984 
	C543.463074,54.080734 543.941711,53.173885 544.714722,52.138668 
	C544.565674,52.974323 544.122314,53.938351 543.331665,54.944984 
z"/>
<path fill="#6BCA29" opacity="1.000000" stroke="none" 
	d="
M550.333252,44.944954 
	C550.456970,44.076927 550.929199,43.165886 551.693176,42.120243 
	C551.550537,42.957741 551.116150,43.929840 550.333252,44.944954 
z"/>
<path fill="#6BCA29" opacity="1.000000" stroke="none" 
	d="
M552.329590,41.943993 
	C552.461487,41.079304 552.941040,40.172821 553.715149,39.138462 
	C553.565491,39.974457 553.121338,40.938328 552.329590,41.943993 
z"/>
<path fill="#6BCA29" opacity="1.000000" stroke="none" 
	d="
M554.357544,38.958477 
	C554.481995,38.097355 554.951050,37.185551 555.710083,36.136547 
	C555.567444,36.968834 555.134827,37.938316 554.357544,38.958477 
z"/>
<path fill="#6BCA29" opacity="1.000000" stroke="none" 
	d="
M569.349731,17.955692 
	C569.479980,17.095638 569.955078,16.187756 570.723999,15.149811 
	C570.576782,15.982452 570.135620,16.945160 569.349731,17.955692 
z"/>
<path fill="#FFFFFF" opacity="1.000000" stroke="none" 
	d="
M306.925232,99.000000 
	C303.150635,99.000000 299.858490,99.000000 296.284882,99.000000 
	C296.284882,90.662338 296.284882,82.621422 296.284882,74.015694 
	C302.695129,74.015694 309.123383,73.722610 315.509888,74.113052 
	C320.197083,74.399612 324.920013,80.529968 324.981018,85.442062 
	C325.059967,91.797295 319.181854,98.426750 312.883545,98.973488 
	C311.071167,99.130814 309.233673,98.999161 306.925232,99.000000 
z"/>
<path fill="#FFFFFF" opacity="1.000000" stroke="none" 
	d="
M853.000000,89.962082 
	C853.000000,84.502731 853.000000,79.538025 853.000000,74.014168 
	C859.712036,74.014168 866.271912,73.249054 872.506592,74.340942 
	C875.566895,74.876892 879.544617,78.433754 880.366699,81.386444 
	C881.380005,85.026100 880.432983,89.897980 878.700989,93.439117 
	C876.606567,97.721283 872.074036,99.361229 867.005127,99.056038 
	C862.551514,98.787880 858.069031,99.000000 853.000000,99.000000 
	C853.000000,95.988815 853.000000,93.222771 853.000000,89.962082 
z"/>
<path fill="#FFFFFF" opacity="1.000000" stroke="none" 
	d="
M709.521423,230.460876 
	C709.198853,226.990891 709.198853,223.852554 709.198853,220.046295 
	C712.413208,220.046295 715.578308,219.647781 718.588928,220.158905 
	C721.571899,220.665329 724.386047,222.134384 723.972229,226.065933 
	C723.585876,229.736893 721.283447,231.103638 717.825073,231.000961 
	C715.164978,230.921982 712.504395,230.861343 709.521423,230.460876 
z"/>
<path fill="#FFFFFF" opacity="1.000000" stroke="none" 
	d="
M722.226440,204.821945 
	C723.393372,211.183731 721.951721,212.925949 715.971985,212.995911 
	C713.857300,213.020660 711.742065,212.999863 709.315796,212.999863 
	C709.315796,209.683380 709.315796,206.773605 709.315796,202.515717 
	C713.543823,203.189713 717.737061,203.858154 722.226440,204.821945 
z"/>
<path fill="#FFFFFF" opacity="1.000000" stroke="none" 
	d="
M919.793823,209.633286 
	C922.504211,218.635834 921.143066,225.617737 915.321350,228.916107 
	C912.279785,230.639359 908.347778,230.791031 904.294373,231.780289 
	C904.294373,221.650970 904.294373,212.744049 904.294373,203.820908 
	C912.033997,201.579529 914.739014,202.531387 919.793823,209.633286 
z"/>
<path fill="#FFFFFF" opacity="1.000000" stroke="none" 
	d="
M436.363220,203.029846 
	C443.338409,206.159546 446.558197,213.979370 444.296600,221.286804 
	C441.735779,229.560974 437.863464,231.845230 428.294739,230.511246 
	C428.294739,221.652039 428.294739,212.744522 428.294739,203.008179 
	C430.795166,203.008179 433.366669,203.008179 436.363220,203.029846 
z"/>
<path fill="#FFFFFF" opacity="1.000000" stroke="none" 
	d="
M512.914185,208.114243 
	C512.083557,212.607056 509.374664,214.129654 505.388031,214.016159 
	C502.438232,213.932175 499.484131,213.999634 496.270294,213.999634 
	C496.270294,210.230103 496.270294,206.973816 496.270294,203.731995 
	C505.633087,201.505737 509.958344,202.555878 512.914185,208.114243 
z"/>
<path fill="#FFFFFF" opacity="1.000000" stroke="none" 
	d="
M230.722534,203.000092 
	C235.217834,202.795212 238.195541,204.187439 237.910416,208.707123 
	C237.658752,212.696365 234.898758,214.175217 231.056931,214.021637 
	C228.274399,213.910400 225.483826,213.999908 222.350220,213.999908 
	C222.350220,210.288406 222.350220,206.932755 222.350220,203.000000 
	C225.075699,203.000000 227.670944,203.000000 230.722534,203.000092 
z"/>
<path fill="#FFFFFF" opacity="1.000000" stroke="none" 
	d="
M667.110840,213.999542 
	C664.410400,214.191483 662.738098,213.871490 662.965881,210.931961 
	C663.154053,208.504059 663.004333,206.049988 663.004333,203.021255 
	C667.007263,203.021255 670.593079,202.919388 674.170410,203.051117 
	C677.470764,203.172668 679.442078,205.330490 679.495728,208.349228 
	C679.553711,211.609222 677.508667,213.770889 674.020325,213.965607 
	C671.878296,214.085190 669.724609,213.995575 667.110840,213.999542 
z"/>
</svg>